{"accessors" : [{"bufferView" : 0, "byteOffset" : 0, "componentType" : 5123, "count" : 336, "type" : "SCALAR", "max" : [208], "min" : [0]}, {"bufferView" : 1, "byteOffset" : 0, "componentType" : 5126, "count" : 209, "type" : "VEC3", "max" : [0.14425699412822723, 0.15418000519275665, -4.749415874481201], "min" : [-0.14425699412822723, -0.12651599943637848, -4.875566005706787]}, {"bufferView" : 1, "byteOffset" : 12, "componentType" : 5126, "count" : 209, "type" : "VEC3", "max" : [0.9307113289833069, 0.8449133038520813, -0.09219904989004135], "min" : [-0.9307113289833069, -0.9783898591995239, -0.998851478099823]}, {"bufferView" : 0, "byteOffset" : 672, "componentType" : 5123, "count" : 264, "type" : "SCALAR", "max" : [107], "min" : [0]}, {"bufferView" : 2, "byteOffset" : 0, "componentType" : 5126, "count" : 108, "type" : "VEC3", "max" : [1.2602369785308838, -0.4923039972782135, 4.816360950469971], "min" : [-1.2602369785308838, -0.6054739952087402, 4.343297004699707]}, {"bufferView" : 2, "byteOffset" : 12, "componentType" : 5126, "count" : 108, "type" : "VEC3", "max" : [1.0000044107437134, 1.0000044107437134, 1.0000044107437134], "min" : [-1.0000044107437134, -1.0000044107437134, -1.0000044107437134]}, {"bufferView" : 0, "byteOffset" : 1200, "componentType" : 5123, "count" : 600, "type" : "SCALAR", "max" : [325], "min" : [0]}, {"bufferView" : 3, "byteOffset" : 0, "componentType" : 5126, "count" : 326, "type" : "VEC3", "max" : [1.6447429656982422, 0.014499000273644924, 4.916254997253418], "min" : [-1.6447429656982422, -0.3919849991798401, 4.3662309646606445]}, {"bufferView" : 3, "byteOffset" : 12, "componentType" : 5126, "count" : 326, "type" : "VEC3", "max" : [1.0000044107437134, 1.0000044107437134, 0.9983842968940735], "min" : [-1.0000044107437134, -1.0000044107437134, 0]}, {"bufferView" : 0, "byteOffset" : 2400, "componentType" : 5123, "count" : 3840, "type" : "SCALAR", "max" : [1119], "min" : [0]}, {"bufferView" : 4, "byteOffset" : 0, "componentType" : 5126, "count" : 1120, "type" : "VEC3", "max" : [1.2045259475708008, 0.024779999628663063, 4.862605094909668], "min" : [-1.2045259475708008, -0.4026789963245392, 4.481531143188477]}, {"bufferView" : 4, "byteOffset" : 12, "componentType" : 5126, "count" : 1120, "type" : "VEC3", "max" : [0.2103084921836853, 1.0000044107437134, 0.9776394963264465], "min" : [-0.2103084921836853, -1.0000044107437134, 0]}, {"bufferView" : 0, "byteOffset" : 10080, "componentType" : 5123, "count" : 7398, "type" : "SCALAR", "max" : [4355], "min" : [0]}, {"bufferView" : 5, "byteOffset" : 0, "componentType" : 5126, "count" : 4356, "type" : "VEC3", "max" : [1.9593000411987305, 1.3126029968261719, 4.945377826690674], "min" : [-1.9593000411987305, -1.014704942703247, -4.902875900268555]}, {"bufferView" : 5, "byteOffset" : 12, "componentType" : 5126, "count" : 4356, "type" : "VEC3", "max" : [1.0000044107437134, 1.0000044107437134, 1.0000044107437134], "min" : [-1.0000044107437134, -1.0000044107437134, -1.0000044107437134]}, {"bufferView" : 0, "byteOffset" : 24876, "componentType" : 5123, "count" : 1560, "type" : "SCALAR", "max" : [863], "min" : [0]}, {"bufferView" : 6, "byteOffset" : 0, "componentType" : 5126, "count" : 864, "type" : "VEC3", "max" : [0.9711229801177979, 0.5885589718818665, 1.9840420484542847], "min" : [-0.9711229801177979, 0.3885590136051178, 1.7458829879760742]}, {"bufferView" : 6, "byteOffset" : 12, "componentType" : 5126, "count" : 864, "type" : "VEC3", "max" : [1.0000044107437134, 1.0000044107437134, 1.0000044107437134], "min" : [-1.0000044107437134, -1.0000044107437134, -1.0000044107437134]}, {"bufferView" : 0, "byteOffset" : 27996, "componentType" : 5123, "count" : 2112, "type" : "SCALAR", "max" : [943], "min" : [0]}, {"bufferView" : 7, "byteOffset" : 0, "componentType" : 5126, "count" : 944, "type" : "VEC3", "max" : [1.4799740314483643, 0.10647500306367874, -4.739327907562256], "min" : [-1.4799740314483643, -0.13151699304580688, -4.855708122253418]}, {"bufferView" : 7, "byteOffset" : 12, "componentType" : 5126, "count" : 944, "type" : "VEC3", "max" : [1.0000044107437134, 1.0000044107437134, 0.25090426206588745], "min" : [-1.0000044107437134, -1.0000044107437134, -0.9896981716156006]}, {"bufferView" : 0, "byteOffset" : 32220, "componentType" : 5123, "count" : 1488, "type" : "SCALAR", "max" : [727], "min" : [0]}, {"bufferView" : 8, "byteOffset" : 0, "componentType" : 5126, "count" : 728, "type" : "VEC3", "max" : [1.5150690078735352, -0.569329023361206, 4.556111812591553], "min" : [-1.5150690078735352, -0.6978800296783447, 4.362324237823486]}, {"bufferView" : 8, "byteOffset" : 12, "componentType" : 5126, "count" : 728, "type" : "VEC3", "max" : [1.0000044107437134, 1.0000044107437134, 0.9862937927246094], "min" : [-1.0000044107437134, -1.0000044107437134, 0]}, {"bufferView" : 0, "byteOffset" : 35196, "componentType" : 5123, "count" : 1248, "type" : "SCALAR", "max" : [577], "min" : [0]}, {"bufferView" : 9, "byteOffset" : 0, "componentType" : 5126, "count" : 578, "type" : "VEC3", "max" : [1.9311950206756592, -0.3935920000076294, -2.2944419384002686], "min" : [-1.9311950206756592, -0.9311500191688538, -2.8320000171661377]}, {"bufferView" : 9, "byteOffset" : 12, "componentType" : 5126, "count" : 578, "type" : "VEC3", "max" : [1.0000044107437134, 0.9807882905006409, 0.9807882905006409], "min" : [-1.0000044107437134, -0.9807882905006409, -0.9807882905006409]}, {"bufferView" : 0, "byteOffset" : 37692, "componentType" : 5123, "count" : 7320, "type" : "SCALAR", "max" : [4091], "min" : [0]}, {"bufferView" : 10, "byteOffset" : 0, "componentType" : 5126, "count" : 4092, "type" : "VEC3", "max" : [1.935973048210144, -0.15127800405025482, -2.053030014038086], "min" : [-1.9359740018844604, -1.1745970249176025, -3.0734119415283203]}, {"bufferView" : 10, "byteOffset" : 12, "componentType" : 5126, "count" : 4092, "type" : "VEC3", "max" : [1.0000044107437134, 0.9952598810195923, 0.9999798536300659], "min" : [-1.0000044107437134, -0.9982265830039978, -0.9999798536300659]}, {"bufferView" : 0, "byteOffset" : 52332, "componentType" : 5123, "count" : 4224, "type" : "SCALAR", "max" : [2623], "min" : [0]}, {"bufferView" : 11, "byteOffset" : 0, "componentType" : 5126, "count" : 2624, "type" : "VEC3", "max" : [1.8903709650039673, 0.04495999962091446, -1.8558900356292725], "min" : [-1.8903709650039673, -1.3697019815444946, -3.270551919937134]}, {"bufferView" : 11, "byteOffset" : 12, "componentType" : 5126, "count" : 2624, "type" : "VEC3", "max" : [1.0000044107437134, 0.9807882905006409, 0.9807882905006409], "min" : [-1.0000044107437134, -0.9807882905006409, -0.9807882905006409]}, {"bufferView" : 0, "byteOffset" : 60780, "componentType" : 5123, "count" : 4224, "type" : "SCALAR", "max" : [2623], "min" : [0]}, {"bufferView" : 12, "byteOffset" : 0, "componentType" : 5126, "count" : 2624, "type" : "VEC3", "max" : [1.876459002494812, -0.08374600112438202, 3.836277961730957], "min" : [-1.876459002494812, -1.335805058479309, 2.584218978881836]}, {"bufferView" : 12, "byteOffset" : 12, "componentType" : 5126, "count" : 2624, "type" : "VEC3", "max" : [1.0000044107437134, 0.9807882905006409, 0.9807882905006409], "min" : [-1.0000044107437134, -0.9807882905006409, -0.9807882905006409]}, {"bufferView" : 0, "byteOffset" : 69228, "componentType" : 5123, "count" : 7320, "type" : "SCALAR", "max" : [4093], "min" : [0]}, {"bufferView" : 13, "byteOffset" : 0, "componentType" : 5126, "count" : 4094, "type" : "VEC3", "max" : [1.9168200492858887, -0.25742900371551514, 3.6617980003356934], "min" : [-1.9168200492858887, -1.163125991821289, 2.758699893951416]}, {"bufferView" : 13, "byteOffset" : 12, "componentType" : 5126, "count" : 4094, "type" : "VEC3", "max" : [1.0000044107437134, 0.9952598810195923, 0.9999798536300659], "min" : [-1.0000044107437134, -0.9982265830039978, -0.9999798536300659]}, {"bufferView" : 0, "byteOffset" : 83868, "componentType" : 5123, "count" : 1248, "type" : "SCALAR", "max" : [577], "min" : [0]}, {"bufferView" : 14, "byteOffset" : 0, "componentType" : 5126, "count" : 578, "type" : "VEC3", "max" : [1.9125900268554688, -0.47189000248908997, 3.448133945465088], "min" : [-1.9125909805297852, -0.9476609826087952, 2.9723639488220215]}, {"bufferView" : 14, "byteOffset" : 12, "componentType" : 5126, "count" : 578, "type" : "VEC3", "max" : [1.0000044107437134, 0.9807882905006409, 0.9807882905006409], "min" : [-1.0000044107437134, -0.9807882905006409, -0.9807882905006409]}, {"bufferView" : 0, "byteOffset" : 86364, "componentType" : 5123, "count" : 108, "type" : "SCALAR", "max" : [71], "min" : [0]}, {"bufferView" : 15, "byteOffset" : 0, "componentType" : 5126, "count" : 72, "type" : "VEC3", "max" : [1.2304730415344238, 1.1554720401763916, -2.0676050186157227], "min" : [-1.2304730415344238, 0.7054809927940369, -3.0257630348205566]}, {"bufferView" : 15, "byteOffset" : 12, "componentType" : 5126, "count" : 72, "type" : "VEC3", "max" : [0.23130494356155396, 0.9334221482276917, -0.29940712451934814], "min" : [-0.23130494356155396, 0.8998192548751831, -0.4181915819644928]}, {"bufferView" : 0, "byteOffset" : 86580, "componentType" : 5123, "count" : 108, "type" : "SCALAR", "max" : [71], "min" : [0]}, {"bufferView" : 16, "byteOffset" : 0, "componentType" : 5126, "count" : 72, "type" : "VEC3", "max" : [1.208678960800171, 1.1435550451278687, -2.092979907989502], "min" : [-1.208678960800171, 0.7173979878425598, -3.0003879070281982]}, {"bufferView" : 16, "byteOffset" : 12, "componentType" : 5126, "count" : 72, "type" : "VEC3", "max" : [0.2883144021034241, 0.9251584410667419, -0.2970983386039734], "min" : [-0.2883144021034241, 0.9036451578140259, -0.4086241126060486]}, {"bufferView" : 0, "byteOffset" : 86796, "componentType" : 5123, "count" : 180, "type" : "SCALAR", "max" : [119], "min" : [0]}, {"bufferView" : 17, "byteOffset" : 0, "componentType" : 5126, "count" : 120, "type" : "VEC3", "max" : [1.6132639646530151, 1.2042460441589355, 1.4068900346755981], "min" : [-1.6132639646530151, 0.3654710054397583, -1.1690160036087036]}, {"bufferView" : 17, "byteOffset" : 12, "componentType" : 5126, "count" : 120, "type" : "VEC3", "max" : [0.9943224787712097, 0.4299032390117645, 0.07640281319618225], "min" : [-0.9943224787712097, 0.1063024029135704, -0.022200167179107666]}, {"bufferView" : 0, "byteOffset" : 87156, "componentType" : 5123, "count" : 78, "type" : "SCALAR", "max" : [53], "min" : [0]}, {"bufferView" : 18, "byteOffset" : 0, "componentType" : 5126, "count" : 54, "type" : "VEC3", "max" : [1.621567964553833, 1.0868459939956665, -0.947284996509552], "min" : [-1.621567964553833, 0.39522698521614075, -1.8360639810562134]}, {"bufferView" : 18, "byteOffset" : 12, "componentType" : 5126, "count" : 54, "type" : "VEC3", "max" : [0.9993908405303955, 0.5298088192939758, 0.047901563346385956], "min" : [-0.9993908405303955, 0.013299877755343914, -0.31139418482780457]}, {"bufferView" : 0, "byteOffset" : 87312, "componentType" : 5123, "count" : 12, "type" : "SCALAR", "max" : [7], "min" : [0]}, {"bufferView" : 19, "byteOffset" : 0, "componentType" : 5126, "count" : 8, "type" : "VEC3", "max" : [1.61183500289917, 1.0177390575408936, -0.9937199950218201], "min" : [-1.61183500289917, 0.4287540018558502, -1.774901032447815]}, {"bufferView" : 19, "byteOffset" : 12, "componentType" : 5126, "count" : 8, "type" : "VEC3", "max" : [0.9358288049697876, 0.3475107252597809, 0.058901816606521606], "min" : [-0.9358288049697876, 0.3475107252597809, 0.058901816606521606]}, {"bufferView" : 0, "byteOffset" : 87336, "componentType" : 5123, "count" : 504, "type" : "SCALAR", "max" : [331], "min" : [0]}, {"bufferView" : 20, "byteOffset" : 0, "componentType" : 5126, "count" : 332, "type" : "VEC3", "max" : [1.9193259477615356, 0.49543699622154236, 1.6167869567871094], "min" : [-1.9193259477615356, -0.7502909898757935, -0.947284996509552]}, {"bufferView" : 20, "byteOffset" : 12, "componentType" : 5126, "count" : 332, "type" : "VEC3", "max" : [0.998652994632721, 0.822898268699646, 0.04399755969643593], "min" : [-0.998652994632721, -0.6443642377853394, -0.03630157560110092]}, {"bufferView" : 0, "byteOffset" : 88344, "componentType" : 5123, "count" : 108, "type" : "SCALAR", "max" : [71], "min" : [0]}, {"bufferView" : 21, "byteOffset" : 0, "componentType" : 5126, "count" : 72, "type" : "VEC3", "max" : [1.5591349601745605, 1.301090955734253, 1.7002270221710205], "min" : [-1.5591349601745605, 0.47985801100730896, 0.7524290084838867]}, {"bufferView" : 21, "byteOffset" : 12, "componentType" : 5126, "count" : 72, "type" : "VEC3", "max" : [0.5076995491981506, 0.7262993454933167, 0.8806049823760986], "min" : [-0.5076995491981506, 0.4716026782989502, 0.46339958906173706]}, {"bufferView" : 0, "byteOffset" : 88560, "componentType" : 5123, "count" : 108, "type" : "SCALAR", "max" : [71], "min" : [0]}, {"bufferView" : 22, "byteOffset" : 0, "componentType" : 5126, "count" : 72, "type" : "VEC3", "max" : [1.5371849536895752, 1.2818210124969482, 1.687067985534668], "min" : [-1.5371849536895752, 0.4922739863395691, 0.7655869722366333]}, {"bufferView" : 22, "byteOffset" : 12, "componentType" : 5126, "count" : 72, "type" : "VEC3", "max" : [0.3048970699310303, 0.7124106287956238, 0.7069011330604553], "min" : [-0.3048970699310303, 0.694101095199585, 0.6420938372612]}, {"bufferView" : 0, "byteOffset" : 88776, "componentType" : 5123, "count" : 624, "type" : "SCALAR", "max" : [415], "min" : [0]}, {"bufferView" : 23, "byteOffset" : 0, "componentType" : 5126, "count" : 416, "type" : "VEC3", "max" : [1.6695189476013184, 0.06963299959897995, 4.694043159484863], "min" : [-1.6695189476013184, -0.42391499876976013, 4.519142150878906]}, {"bufferView" : 23, "byteOffset" : 12, "componentType" : 5126, "count" : 416, "type" : "VEC3", "max" : [0.9932394623756409, 0.9917193651199341, 0.9996598362922668], "min" : [-0.9932394623756409, -0.9944886565208435, 0.039899829775094986]}, {"bufferView" : 0, "byteOffset" : 90024, "componentType" : 5123, "count" : 1248, "type" : "SCALAR", "max" : [750], "min" : [0]}, {"bufferView" : 24, "byteOffset" : 0, "componentType" : 5126, "count" : 751, "type" : "VEC3", "max" : [1.6259640455245972, 0.026078000664711, 4.694043159484863], "min" : [-1.6259640455245972, -0.37025099992752075, 4.5470709800720215]}, {"bufferView" : 24, "byteOffset" : 12, "componentType" : 5126, "count" : 751, "type" : "VEC3", "max" : [0.9807882905006409, 0.9807882905006409, 1.0000044107437134], "min" : [-0.9807882905006409, -0.9807882905006409, 0]}, {"bufferView" : 0, "byteOffset" : 92520, "componentType" : 5123, "count" : 480, "type" : "SCALAR", "max" : [351], "min" : [0]}, {"bufferView" : 25, "byteOffset" : 0, "componentType" : 5126, "count" : 352, "type" : "VEC3", "max" : [1.6049619913101196, 0.0050760000012815, 4.708124160766602], "min" : [-1.6049619913101196, -0.349249005317688, 4.694042205810547]}, {"bufferView" : 25, "byteOffset" : 12, "componentType" : 5126, "count" : 352, "type" : "VEC3", "max" : [0.10770615190267563, 0.10770615190267563, 0.9997878670692444], "min" : [-0.10770615190267563, -0.10770615190267563, 0.9939568042755127]}], "asset" : {"generator" : "Aspose.3D 21.1", "version" : "2.0"}, "buffers" : [{"uri" : "buffer.bin", "byteLength" : 1215344}], "bufferViews" : [{"buffer" : 0, "byteOffset" : 0, "byteLength" : 93480, "target" : 34963}, {"buffer" : 0, "byteOffset" : 93484, "byteLength" : 8064, "byteStride" : 24, "target" : 34962}, {"buffer" : 0, "byteOffset" : 101552, "byteLength" : 6336, "byteStride" : 24, "target" : 34962}, {"buffer" : 0, "byteOffset" : 107892, "byteLength" : 14400, "byteStride" : 24, "target" : 34962}, {"buffer" : 0, "byteOffset" : 122296, "byteLength" : 92160, "byteStride" : 24, "target" : 34962}, {"buffer" : 0, "byteOffset" : 214460, "byteLength" : 177552, "byteStride" : 24, "target" : 34962}, {"buffer" : 0, "byteOffset" : 392016, "byteLength" : 37440, "byteStride" : 24, "target" : 34962}, {"buffer" : 0, "byteOffset" : 429460, "byteLength" : 50688, "byteStride" : 24, "target" : 34962}, {"buffer" : 0, "byteOffset" : 480152, "byteLength" : 35712, "byteStride" : 24, "target" : 34962}, {"buffer" : 0, "byteOffset" : 515868, "byteLength" : 29952, "byteStride" : 24, "target" : 34962}, {"buffer" : 0, "byteOffset" : 545824, "byteLength" : 175680, "byteStride" : 24, "target" : 34962}, {"buffer" : 0, "byteOffset" : 721508, "byteLength" : 101376, "byteStride" : 24, "target" : 34962}, {"buffer" : 0, "byteOffset" : 822888, "byteLength" : 101376, "byteStride" : 24, "target" : 34962}, {"buffer" : 0, "byteOffset" : 924268, "byteLength" : 175680, "byteStride" : 24, "target" : 34962}, {"buffer" : 0, "byteOffset" : 1099952, "byteLength" : 29952, "byteStride" : 24, "target" : 34962}, {"buffer" : 0, "byteOffset" : 1129908, "byteLength" : 2592, "byteStride" : 24, "target" : 34962}, {"buffer" : 0, "byteOffset" : 1132504, "byteLength" : 2592, "byteStride" : 24, "target" : 34962}, {"buffer" : 0, "byteOffset" : 1135100, "byteLength" : 4320, "byteStride" : 24, "target" : 34962}, {"buffer" : 0, "byteOffset" : 1139424, "byteLength" : 1872, "byteStride" : 24, "target" : 34962}, {"buffer" : 0, "byteOffset" : 1141300, "byteLength" : 288, "byteStride" : 24, "target" : 34962}, {"buffer" : 0, "byteOffset" : 1141592, "byteLength" : 12096, "byteStride" : 24, "target" : 34962}, {"buffer" : 0, "byteOffset" : 1153692, "byteLength" : 2592, "byteStride" : 24, "target" : 34962}, {"buffer" : 0, "byteOffset" : 1156288, "byteLength" : 2592, "byteStride" : 24, "target" : 34962}, {"buffer" : 0, "byteOffset" : 1158884, "byteLength" : 14976, "byteStride" : 24, "target" : 34962}, {"buffer" : 0, "byteOffset" : 1173864, "byteLength" : 29952, "byteStride" : 24, "target" : 34962}, {"buffer" : 0, "byteOffset" : 1203820, "byteLength" : 11520, "byteStride" : 24, "target" : 34962}], "meshes" : [{"primitives" : [{"attributes" : {"POSITION" : 1, "NORMAL" : 2}, "indices" : 0, "mode" : 4}]}, {"primitives" : [{"attributes" : {"POSITION" : 4, "NORMAL" : 5}, "indices" : 3, "mode" : 4}]}, {"primitives" : [{"attributes" : {"POSITION" : 7, "NORMAL" : 8}, "indices" : 6, "mode" : 4}]}, {"primitives" : [{"attributes" : {"POSITION" : 10, "NORMAL" : 11}, "indices" : 9, "mode" : 4}]}, {"primitives" : [{"attributes" : {"POSITION" : 13, "NORMAL" : 14}, "indices" : 12, "mode" : 4}]}, {"primitives" : [{"attributes" : {"POSITION" : 16, "NORMAL" : 17}, "indices" : 15, "mode" : 4}]}, {"primitives" : [{"attributes" : {"POSITION" : 19, "NORMAL" : 20}, "indices" : 18, "mode" : 4}]}, {"primitives" : [{"attributes" : {"POSITION" : 22, "NORMAL" : 23}, "indices" : 21, "mode" : 4}]}, {"primitives" : [{"attributes" : {"POSITION" : 25, "NORMAL" : 26}, "indices" : 24, "mode" : 4}]}, {"primitives" : [{"attributes" : {"POSITION" : 28, "NORMAL" : 29}, "indices" : 27, "mode" : 4}]}, {"primitives" : [{"attributes" : {"POSITION" : 31, "NORMAL" : 32}, "indices" : 30, "mode" : 4}]}, {"primitives" : [{"attributes" : {"POSITION" : 34, "NORMAL" : 35}, "indices" : 33, "mode" : 4}]}, {"primitives" : [{"attributes" : {"POSITION" : 37, "NORMAL" : 38}, "indices" : 36, "mode" : 4}]}, {"primitives" : [{"attributes" : {"POSITION" : 40, "NORMAL" : 41}, "indices" : 39, "mode" : 4}]}, {"primitives" : [{"attributes" : {"POSITION" : 43, "NORMAL" : 44}, "indices" : 42, "mode" : 4}]}, {"primitives" : [{"attributes" : {"POSITION" : 46, "NORMAL" : 47}, "indices" : 45, "mode" : 4}]}, {"primitives" : [{"attributes" : {"POSITION" : 49, "NORMAL" : 50}, "indices" : 48, "mode" : 4}]}, {"primitives" : [{"attributes" : {"POSITION" : 52, "NORMAL" : 53}, "indices" : 51, "mode" : 4}]}, {"primitives" : [{"attributes" : {"POSITION" : 55, "NORMAL" : 56}, "indices" : 54, "mode" : 4}]}, {"primitives" : [{"attributes" : {"POSITION" : 58, "NORMAL" : 59}, "indices" : 57, "mode" : 4}]}, {"primitives" : [{"attributes" : {"POSITION" : 61, "NORMAL" : 62}, "indices" : 60, "mode" : 4}]}, {"primitives" : [{"attributes" : {"POSITION" : 64, "NORMAL" : 65}, "indices" : 63, "mode" : 4}]}, {"primitives" : [{"attributes" : {"POSITION" : 67, "NORMAL" : 68}, "indices" : 66, "mode" : 4}]}, {"primitives" : [{"attributes" : {"POSITION" : 70, "NORMAL" : 71}, "indices" : 69, "mode" : 4}]}, {"primitives" : [{"attributes" : {"POSITION" : 73, "NORMAL" : 74}, "indices" : 72, "mode" : 4}]}], "nodes" : [{"mesh" : 0, "name" : "Logo_Círculo.007"}, {"mesh" : 1, "name" : "Plano.002_Plano.019"}, {"mesh" : 2, "name" : "Carroceria_2_Plano.003"}, {"mesh" : 3, "name" : "Rejilla_Plano.002"}, {"mesh" : 4, "name" : "Carroceria_Plano"}, {"mesh" : 5, "name" : "Cubo"}, {"mesh" : 6, "name" : "Luz_Tr_Plano.021"}, {"mesh" : 7, "name" : "Luz_Ad_Plano.020"}, {"mesh" : 8, "name" : "Rin_2_Tr_Círculo.006"}, {"mesh" : 9, "name" : "Rin_1_Tr_Plano.018"}, {"mesh" : 10, "name" : "Ruedas_Tr_Círculo.005"}, {"mesh" : 11, "name" : "Ruedas_Ad_Círculo.004"}, {"mesh" : 12, "name" : "Rin_1_Ad_Plano.017"}, {"mesh" : 13, "name" : "Rin_2_Ad_Círculo.003"}, {"mesh" : 14, "name" : "Marco_Parabrisad_Tr_Plano.016"}, {"mesh" : 15, "name" : "Parabrisas_Tr_Plano.015"}, {"mesh" : 16, "name" : "Ventana_1_Plano.013"}, {"mesh" : 17, "name" : "Marco_Ventana_2_Plano.012"}, {"mesh" : 18, "name" : "Ventana_2_Plano.010"}, {"mesh" : 19, "name" : "Pueratas_Plano.008"}, {"mesh" : 20, "name" : "Marco_Parabrisad_Ad_Plano.006"}, {"mesh" : 21, "name" : "Parabrisas_Ad_Plano.005"}, {"mesh" : 22, "name" : "Faro_Protector_Círculo.002"}, {"mesh" : 23, "name" : "Faro_Círculo"}, {"mesh" : 24, "name" : "Faro_2_Círculo.001"}], "scene" : 0, "scenes" : [{"nodes" : [0, 1, 2, 3, 4, 5, 6, 7, 8, 9, 10, 11, 12, 13, 14, 15, 16, 17, 18, 19, 20, 21, 22, 23, 24]}]}